<svg width="80" height="78" viewBox="0 0 80 78" fill="none" xmlns="http://www.w3.org/2000/svg">
<path d="M70.2359 56.5086C74.0109 54.2348 76.5289 50.1462 76.5289 45.4804C76.5289 38.3394 70.6308 32.5504 63.355 32.5504C56.0793 32.5504 50.1812 38.3394 50.1812 45.4804C50.1812 50.1462 52.6991 54.2348 56.4742 56.5086C54.7191 57.2216 53.1031 58.2084 51.7109 59.4383C48.6226 62.1662 46.8877 65.8661 46.8877 69.724V77.8052H79.8224V69.724C79.8224 65.8661 78.0874 62.1662 74.9992 59.4383C73.6069 58.2084 71.991 57.2216 70.2359 56.5086Z" fill="white"/>
<path d="M30.4204 33.3145H33.7139V43.0472H30.4204V33.3145Z" fill="#4200FF"/>
<path d="M30.4204 46.2914H33.7139V49.5357H30.4204V46.2914Z" fill="#4200FF"/>
<path d="M33.7139 20.3376V17.0933C40.3008 17.0933 43.5943 20.3376 43.5943 26.826L40.3008 26.826C40.3008 23.5818 37.0074 20.3376 33.7139 20.3376Z" fill="#4200FF"/>
<path d="M33.7139 33.3145L33.7139 36.5587C40.3008 36.5587 43.5943 33.3145 43.5943 26.826L40.3008 26.826C40.3008 30.0703 37.0073 33.3145 33.7139 33.3145Z" fill="#4200FF"/>
<path d="M33.7139 20.3376V17.0933C27.127 17.0933 23.8335 20.3376 23.8335 26.826L27.127 26.826C27.127 23.5818 30.4204 20.3376 33.7139 20.3376Z" fill="#4200FF"/>
<path d="M56.812 6.69058L17.4652 6.69058V9.87529L56.812 9.87529C60.0909 9.87529 63.3698 13.06 63.3698 16.2447V35.353H66.6487V16.2447C66.6487 9.87529 63.3698 6.69058 56.812 6.69058Z" fill="#4200FF"/>
<path d="M17.2466 55.1778C14.0989 55.1778 10.6597 52.2956 10.6597 49.2383V15.6078H7.36621V49.2383C7.36621 55.3529 10.514 58.4102 16.8094 58.4102L35.6959 58.4102V55.1778H17.2466Z" fill="#4200FF"/>
<path d="M38.0567 58.4102V55.1778L44.3522 55.0666V58.4102H38.0567Z" fill="#4200FF"/>
<path d="M50.1812 42.2479C50.1812 35.7829 53.4746 32.5504 60.0616 32.5504H66.6485C73.2354 32.5504 76.5289 35.7829 76.5289 42.2479H79.8224V48.7128H76.5289C76.5289 55.1778 73.2354 58.4103 66.6485 58.4103V55.1778C69.942 55.1778 73.2354 51.9453 73.2354 48.7128V42.2479C73.2354 39.0154 69.942 35.7829 66.6485 35.7829H60.0616C56.7681 35.7829 53.4746 39.0154 53.4746 42.2479V48.7128H46.8877V42.2479H50.1812Z" fill="#4200FF"/>
<rect x="0.779541" y="3.45813" width="16.4673" height="9.69744" fill="white"/>
<path fill-rule="evenodd" clip-rule="evenodd" d="M4.07302 3.46945V0.225647L13.9535 0.225647V3.45785H17.2469L17.2469 13.2028H13.9535V16.4466H4.07302V13.2028H0.779541V3.47002L4.07302 3.46945ZM7.36653 13.2024V9.9581H4.07305V6.71372H7.36653V3.46992H10.6599V6.71372H13.9534V6.69033L13.9534 9.95857L10.6599 9.9581V13.2024H7.36653Z" fill="#4200FF"/>
</svg>
